<svg width="16" height="16" viewBox="0 0 16 16" fill="none" xmlns="http://www.w3.org/2000/svg">
<path d="M9.33333 8.00008C9.33333 8.73646 8.73638 9.33341 8 9.33341C7.26362 9.33341 6.66667 8.73646 6.66667 8.00008C6.66667 7.2637 7.26362 6.66675 8 6.66675C8.73638 6.66675 9.33333 7.2637 9.33333 8.00008Z" fill="#E2504B"/>
<path fill-rule="evenodd" clip-rule="evenodd" d="M4.0202 3.31319C4.21547 3.50846 4.21547 3.82504 4.0202 4.0203C1.82222 6.21828 1.82222 9.78191 4.0202 11.9799C4.21547 12.1752 4.21547 12.4917 4.0202 12.687C3.82494 12.8823 3.50836 12.8823 3.3131 12.687C0.724593 10.0985 0.724593 5.9017 3.3131 3.31319C3.50836 3.11793 3.82494 3.11793 4.0202 3.31319ZM11.9798 3.31319C12.1751 3.11793 12.4916 3.11793 12.6869 3.31319C15.2754 5.9017 15.2754 10.0985 12.6869 12.687C12.4916 12.8823 12.1751 12.8823 11.9798 12.687C11.7845 12.4917 11.7845 12.1752 11.9798 11.9799C14.1778 9.78191 14.1778 6.21828 11.9798 4.0203C11.7845 3.82504 11.7845 3.50846 11.9798 3.31319Z" fill="#E2504B"/>
<path fill-rule="evenodd" clip-rule="evenodd" d="M5.70416 5.14944C5.89359 5.35036 5.88427 5.6668 5.68335 5.85624C4.4238 7.04375 4.4238 8.9562 5.68335 10.1437C5.88427 10.3331 5.89359 10.6496 5.70416 10.8505C5.51472 11.0514 5.19828 11.0608 4.99735 10.8713C3.31913 9.28908 3.31913 6.71087 4.99735 5.12863C5.19828 4.9392 5.51472 4.94851 5.70416 5.14944ZM10.2958 5.14944C10.4853 4.94851 10.8017 4.9392 11.0026 5.12863C12.6809 6.71087 12.6809 9.28908 11.0026 10.8713C10.8017 11.0608 10.4853 11.0514 10.2958 10.8505C10.1064 10.6496 10.1157 10.3331 10.3167 10.1437C11.5762 8.9562 11.5762 7.04375 10.3167 5.85624C10.1157 5.6668 10.1064 5.35036 10.2958 5.14944Z" fill="#E2504B"/>
</svg>
