<svg width="18" height="18" viewBox="0 0 18 18" fill="none" xmlns="http://www.w3.org/2000/svg">
<path fill-rule="evenodd" clip-rule="evenodd" d="M8.43752 3.5873C8.43752 3.39955 8.21054 3.3055 8.07775 3.43829L5.86829 5.64775C5.64862 5.86742 5.29246 5.86742 5.07279 5.64775C4.85312 5.42808 4.85312 5.07193 5.07279 4.85226L7.28227 2.64278C8.12376 1.80134 9.56252 2.39727 9.56252 3.5873V9C9.56252 9.31066 9.31068 9.5625 9.00002 9.5625C8.68936 9.5625 8.43752 9.31066 8.43752 9V3.5873ZM13.5232 3.68128C13.7429 3.46161 14.099 3.46161 14.3187 3.68129C17.2561 6.61869 17.2561 11.3812 14.3187 14.3185C14.099 14.5382 13.7429 14.5382 13.5232 14.3185C13.3035 14.0989 13.3035 13.7427 13.5232 13.5231C16.0212 11.025 16.0212 6.97484 13.5232 4.47678C13.3035 4.25711 13.3035 3.90095 13.5232 3.68128ZM11.3361 5.86839C11.5557 5.64872 11.9119 5.64873 12.1316 5.8684C13.8611 7.59792 13.8611 10.402 12.1316 12.1315C11.9119 12.3512 11.5557 12.3512 11.3361 12.1315C11.1164 11.9118 11.1164 11.5557 11.3361 11.336C12.6262 10.0458 12.6262 7.95407 11.3361 6.66389C11.1164 6.44422 11.1164 6.08806 11.3361 5.86839ZM2.81408 7.24277C2.69771 7.24277 2.60333 7.33711 2.60333 7.45355V10.5465C2.60333 10.6629 2.69772 10.7573 2.81408 10.7573H4.04028C4.18946 10.7573 4.33253 10.8165 4.43802 10.922L8.07773 14.5617C8.07772 14.5617 8.07774 14.5617 8.07773 14.5617C8.21059 14.6945 8.43752 14.6004 8.43752 14.4127V12C8.43752 11.6893 8.68936 11.4375 9.00002 11.4375C9.31068 11.4375 9.56252 11.6893 9.56252 12V14.4127C9.56252 15.6028 8.12373 16.1986 7.2823 15.3573L3.80728 11.8823H2.81408C2.07634 11.8823 1.47833 11.2841 1.47833 10.5465V7.45355C1.47833 6.71582 2.07635 6.11777 2.81408 6.11777H3.75003C4.06069 6.11777 4.31253 6.36961 4.31253 6.68027C4.31253 6.99093 4.06069 7.24277 3.75003 7.24277H2.81408Z" fill="white"/>
<path fill-rule="evenodd" clip-rule="evenodd" d="M2.22725 2.22725C2.44692 2.00758 2.80308 2.00758 3.02275 2.22725L15.3977 14.6023C15.6174 14.8219 15.6174 15.1781 15.3977 15.3977C15.1781 15.6174 14.8219 15.6174 14.6023 15.3977L2.22725 3.02275C2.00758 2.80308 2.00758 2.44692 2.22725 2.22725Z" fill="white"/>
</svg>
