<svg width="20" height="20" viewBox="0 0 20 20" fill="none" xmlns="http://www.w3.org/2000/svg">
<path d="M12.4074 10.7412C13.1855 10.7412 13.9561 10.8937 14.675 11.1914C15.3939 11.4892 16.0475 11.9263 16.5978 12.4766C17.148 13.0268 17.5842 13.6805 17.882 14.3994C18.0731 14.8609 18.2048 15.3435 18.2746 15.8359C18.3391 16.2916 17.9603 16.6669 17.5002 16.667H7.31461C6.85446 16.6669 6.47569 16.2916 6.54019 15.8359C6.60991 15.3436 6.74165 14.8609 6.93277 14.3994C7.23055 13.6805 7.66675 13.0268 8.21695 12.4766C8.76722 11.9263 9.42083 11.4892 10.1398 11.1914C10.8587 10.8937 11.6293 10.7412 12.4074 10.7412ZM12.4074 11.9912C11.7934 11.9912 11.1855 12.1118 10.6183 12.3467C10.051 12.5817 9.53494 12.9262 9.10074 13.3604C8.66666 13.7945 8.32202 14.3098 8.08707 14.877C8.01408 15.0532 7.9523 15.234 7.90152 15.417H16.9132C16.8625 15.234 16.8007 15.0532 16.7277 14.877C16.4927 14.3098 16.1481 13.7945 15.714 13.3604C15.2798 12.9262 14.7638 12.5817 14.1964 12.3467C13.6292 12.1118 13.0213 11.9912 12.4074 11.9912ZM12.4074 3.33301C14.2483 3.33301 15.7404 4.82604 15.7404 6.66699C15.7402 8.50779 14.2482 10 12.4074 10C10.5666 9.99997 9.07455 8.50777 9.07437 6.66699C9.07437 4.82606 10.5665 3.33304 12.4074 3.33301ZM12.4074 4.58301C11.2568 4.58304 10.3244 5.51642 10.3244 6.66699C10.3245 7.81742 11.2569 8.74997 12.4074 8.75C13.5579 8.75 14.4902 7.81744 14.4904 6.66699C14.4904 5.5164 13.558 4.58301 12.4074 4.58301Z" fill="white"/>
<path d="M6.11073 10.1157C6.70343 10.1157 7.29068 10.2327 7.83827 10.4595C8.15711 10.5915 8.3091 10.957 8.17714 11.2759C8.04505 11.5948 7.67866 11.7459 7.35976 11.6138C6.96392 11.4499 6.53916 11.3657 6.11073 11.3657C5.68226 11.3658 5.25757 11.4498 4.86171 11.6138C4.4658 11.7778 4.10614 12.0188 3.80312 12.3218C3.50016 12.6248 3.26009 12.9845 3.09608 13.3804C3.01257 13.582 2.94921 13.7912 2.90761 14.0044H5.31874C5.66383 14.0044 5.9436 14.2843 5.94374 14.6294C5.94374 14.9746 5.66392 15.2544 5.31874 15.2544H2.43105C1.9803 15.2544 1.57749 14.8829 1.6039 14.3882C1.63125 13.878 1.74485 13.3749 1.94081 12.9019C2.16764 12.3544 2.5003 11.857 2.91933 11.438C3.33848 11.0188 3.83652 10.6863 4.38417 10.4595C4.9316 10.2328 5.51822 10.1158 6.11073 10.1157ZM6.11073 4.50537C7.49136 4.50537 8.6106 5.62477 8.61073 7.00537C8.61073 8.38608 7.49144 9.50537 6.11073 9.50537C4.73018 9.50518 3.61073 8.38596 3.61073 7.00537C3.61086 5.62489 4.73026 4.50556 6.11073 4.50537ZM6.11073 5.75537C5.42062 5.75556 4.86086 6.31524 4.86073 7.00537C4.86073 7.69561 5.42054 8.25518 6.11073 8.25537C6.80109 8.25537 7.36073 7.69573 7.36073 7.00537C7.3606 6.31513 6.80101 5.75537 6.11073 5.75537Z" fill="white"/>
</svg>
